<?xml version="1.0" standalone="no"?><!DOCTYPE svg PUBLIC "-//W3C//DTD SVG 1.1//EN" "http://www.w3.org/Graphics/SVG/1.1/DTD/svg11.dtd"><svg t="1628608543616" class="icon" viewBox="0 0 1024 1024" version="1.1" xmlns="http://www.w3.org/2000/svg" p-id="3153" xmlns:xlink="http://www.w3.org/1999/xlink" width="128" height="128"><defs><style type="text/css"></style></defs><path d="M874.43 128.61c-14.06-14.06-36.85-14.06-50.91 0L722.2 229.93c-55.75-22.08-115.6-33.27-178.1-33.27-66.5 0-130.05 12.73-188.88 37.85-47.97 20.48-92.99 49.24-133.79 85.48-70.52 62.63-108.03 129.37-117.84 148.33a42.972 42.972 0 0 0 0.37 40.23c10.22 18.89 49.08 85.37 120.03 147.84a531.5 531.5 0 0 0 39.88 31.87L155.75 796.38c-14.06 14.06-14.06 36.85 0 50.91 7.03 7.03 16.24 10.54 25.46 10.54s18.43-3.51 25.46-10.54l667.77-667.77c14.05-14.06 14.05-36.85-0.01-50.91z m-604.2 475.25c-50.98-44.88-83.3-92.66-97.46-116.02 13.64-23.33 44.86-70.85 95.13-115.5 78.95-70.12 171.87-105.67 276.19-105.67 43.14 0 84.29 6.06 123.3 18.07l-63.06 63.06c-18.49-7.96-38.85-12.39-60.22-12.39-84.24 0-152.77 68.53-152.77 152.77 0 21.38 4.43 41.73 12.39 60.22l-89.67 89.67c-15-10.3-29.61-21.7-43.83-34.21z m191.15-113.11c-0.03-0.85-0.04-1.71-0.04-2.57 0-45.64 37.13-82.77 82.77-82.77 0.86 0 1.72 0.01 2.57 0.04l-85.3 85.3zM544.11 570.95c-2.97 0-5.91-0.17-8.8-0.47l-56.02 56.02c19.69 9.26 41.66 14.45 64.82 14.45 84.24 0 152.77-68.53 152.77-152.77 0-23.16-5.19-45.13-14.45-64.82l-56.02 56.02c0.31 2.89 0.47 5.83 0.47 8.8 0 45.64-37.13 82.77-82.77 82.77z" fill="#31D0C8" p-id="3154"></path><path d="M984.7 468.46c-9.75-18.96-47.02-85.7-117.45-148.37A513.811 513.811 0 0 0 821.78 284l-50.31 50.31c16.97 11.3 33.4 23.97 49.25 38.07 50.26 44.72 81.32 92.29 94.82 115.54-13.87 23.27-45.71 71.03-96.49 115.92C739.61 674.09 647.1 709.7 544.1 709.7c-44.51 0-87.16-6.79-127.72-20.29l-54.26 54.26c57.23 23.91 118.42 36.03 181.98 36.03 65.79 0 128.9-12.76 187.56-37.92 47.77-20.49 92.77-49.25 133.76-85.49 70.75-62.55 108.98-129.1 119.01-148 6.6-12.43 6.7-27.31 0.27-39.83z" fill="#31D0C8" p-id="3155" data-spm-anchor-id="a313x.7781069.0.i10"></path></svg>