<?xml version="1.0" standalone="no"?><!DOCTYPE svg PUBLIC "-//W3C//DTD SVG 1.1//EN" "http://www.w3.org/Graphics/SVG/1.1/DTD/svg11.dtd"><svg t="1628608059936" class="icon" viewBox="0 0 1024 1024" version="1.1" xmlns="http://www.w3.org/2000/svg" p-id="2590" xmlns:xlink="http://www.w3.org/1999/xlink" width="128" height="128"><defs><style type="text/css"></style></defs><path d="M565.29 511.59l363.88-363.88c18.75-18.75 18.75-49.14 0-67.88-18.75-18.75-49.14-18.75-67.88 0L497.41 443.71 133.53 79.83c-18.75-18.75-49.14-18.75-67.88 0-18.75 18.74-18.75 49.14 0 67.88l363.88 363.88L65.64 875.47c-18.74 18.75-18.74 49.14 0 67.88 9.37 9.37 21.66 14.06 33.94 14.06s24.57-4.69 33.94-14.06L497.4 579.47l363.88 363.88c9.37 9.37 21.66 14.06 33.94 14.06s24.57-4.69 33.94-14.06c18.75-18.75 18.75-49.14 0-67.88L565.29 511.59z" fill="#d81e06" p-id="2591"></path></svg>