<?xml version="1.0" standalone="no"?><!DOCTYPE svg PUBLIC "-//W3C//DTD SVG 1.1//EN" "http://www.w3.org/Graphics/SVG/1.1/DTD/svg11.dtd"><svg t="1628608236422" class="icon" viewBox="0 0 1024 1024" version="1.1" xmlns="http://www.w3.org/2000/svg" p-id="2793" xmlns:xlink="http://www.w3.org/1999/xlink" width="128" height="128"><defs><style type="text/css"></style></defs><path d="M914.3 455.5h-77.9c-7.8-63.1-36.2-121.5-81.9-167.2-45.7-45.7-104.1-74.1-167.2-81.9v-77.9c0-19.9-16.1-36-36-36s-36 16.1-36 36v77.9c-63.1 7.8-121.5 36.2-167.2 81.9-45.7 45.7-74.1 104-81.9 167.2h-77.9c-19.9 0-36 16.1-36 36s16.1 36 36 36h77.9c7.8 63.1 36.2 121.5 81.9 167.2 45.7 45.7 104 74.1 167.2 81.9v77.9c0 19.9 16.1 36 36 36s36-16.1 36-36v-77.9c63.1-7.8 121.5-36.2 167.2-81.9 45.7-45.7 74.1-104 81.9-167.2h77.9c19.9 0 36-16.1 36-36s-16.1-36-36-36z m-363 251.3c-118.7 0-215.3-96.6-215.3-215.3s96.6-215.3 215.3-215.3c118.7 0 215.3 96.6 215.3 215.3 0 118.7-96.6 215.3-215.3 215.3z" fill="#1adc10" p-id="2794"></path><path d="M551.3 491.5m-101.2 0a101.2 101.2 0 1 0 202.4 0 101.2 101.2 0 1 0-202.4 0Z" fill="#1adc10" p-id="2795"></path></svg>